<svg width="346" height="65" viewBox="0 0 346 65" fill="none" xmlns="http://www.w3.org/2000/svg">
<rect x="2" width="344" height="65" rx="10" fill="#F7F7FB"/>
<path d="M8 15C8 9.47715 12.4772 5 18 5H168V60H18C12.4772 60 8 55.5228 8 50V15Z" fill="#5454D4"/>
<path d="M69.0314 39V35.016L65.2714 27.8H67.5914L70.0714 32.968L72.5354 27.8H74.8234L71.0794 35.016V39H69.0314ZM78.0213 39.192C77.2213 39.192 76.512 39.0213 75.8933 38.68C75.2746 38.3387 74.7893 37.8587 74.4373 37.24C74.0853 36.6213 73.9093 35.9067 73.9093 35.096C73.9093 34.2747 74.08 33.544 74.4213 32.904C74.7733 32.264 75.2533 31.768 75.8613 31.416C76.48 31.0533 77.2053 30.872 78.0373 30.872C78.816 30.872 79.504 31.0427 80.1013 31.384C80.6986 31.7253 81.1626 32.1947 81.4933 32.792C81.8346 33.3787 82.0053 34.0347 82.0053 34.76C82.0053 34.8773 82 35 81.9893 35.128C81.9893 35.256 81.984 35.3893 81.9733 35.528H75.9413C75.984 36.1467 76.1973 36.632 76.5813 36.984C76.976 37.336 77.4506 37.512 78.0053 37.512C78.4213 37.512 78.768 37.4213 79.0453 37.24C79.3333 37.048 79.5466 36.8027 79.6853 36.504H81.7653C81.616 37.0053 81.3653 37.464 81.0133 37.88C80.672 38.2853 80.2453 38.6053 79.7333 38.84C79.232 39.0747 78.6613 39.192 78.0213 39.192ZM78.0373 32.536C77.536 32.536 77.0933 32.68 76.7093 32.968C76.3253 33.2453 76.08 33.672 75.9733 34.248H79.9253C79.8933 33.7253 79.7013 33.3093 79.3493 33C78.9973 32.6907 78.56 32.536 78.0373 32.536ZM85.9636 39.192C85.2809 39.192 84.7209 39.0853 84.2836 38.872C83.8463 38.648 83.5209 38.3547 83.3076 37.992C83.0943 37.6293 82.9876 37.2293 82.9876 36.792C82.9876 36.056 83.2756 35.4587 83.8516 35C84.4276 34.5413 85.2916 34.312 86.4436 34.312H88.4596V34.12C88.4596 33.576 88.3049 33.176 87.9956 32.92C87.6863 32.664 87.3023 32.536 86.8436 32.536C86.4276 32.536 86.0649 32.6373 85.7556 32.84C85.4463 33.032 85.2543 33.32 85.1796 33.704H83.1796C83.2329 33.128 83.4249 32.6267 83.7556 32.2C84.0969 31.7733 84.5343 31.448 85.0676 31.224C85.6009 30.9893 86.1983 30.872 86.8596 30.872C87.9903 30.872 88.8809 31.1547 89.5316 31.72C90.1823 32.2853 90.5076 33.0853 90.5076 34.12V39H88.7636L88.5716 37.72C88.3369 38.1467 88.0063 38.4987 87.5796 38.776C87.1636 39.0533 86.6249 39.192 85.9636 39.192ZM86.4276 37.592C87.0143 37.592 87.4676 37.4 87.7876 37.016C88.1183 36.632 88.3263 36.1573 88.4116 35.592H86.6676C86.1236 35.592 85.7343 35.6933 85.4996 35.896C85.2649 36.088 85.1476 36.328 85.1476 36.616C85.1476 36.9253 85.2649 37.1653 85.4996 37.336C85.7343 37.5067 86.0436 37.592 86.4276 37.592ZM91.9618 39V31.064H93.7858L93.9778 32.552C94.2658 32.04 94.6551 31.6347 95.1458 31.336C95.6471 31.0267 96.2338 30.872 96.9058 30.872V33.032H96.3298C95.8818 33.032 95.4818 33.1013 95.1298 33.24C94.7778 33.3787 94.5004 33.6187 94.2978 33.96C94.1058 34.3013 94.0098 34.776 94.0098 35.384V39H91.9618ZM97.8053 39V27.48H99.8533V39H97.8053ZM102.438 42.52L104.278 38.472H103.798L100.71 31.064H102.934L105.158 36.648L107.478 31.064H109.654L104.614 42.52H102.438Z" fill="white"/>
<path d="M229.229 39V27.8H231.661L235.229 34.904L238.749 27.8H241.181V39H239.133V31.272L236.013 37.4H234.397L231.277 31.272V39H229.229ZM246.614 39.192C245.846 39.192 245.153 39.016 244.534 38.664C243.926 38.312 243.441 37.8267 243.078 37.208C242.726 36.5787 242.55 35.8533 242.55 35.032C242.55 34.2107 242.731 33.4907 243.094 32.872C243.457 32.2427 243.942 31.752 244.55 31.4C245.169 31.048 245.862 30.872 246.63 30.872C247.387 30.872 248.07 31.048 248.678 31.4C249.297 31.752 249.782 32.2427 250.134 32.872C250.497 33.4907 250.678 34.2107 250.678 35.032C250.678 35.8533 250.497 36.5787 250.134 37.208C249.782 37.8267 249.297 38.312 248.678 38.664C248.059 39.016 247.371 39.192 246.614 39.192ZM246.614 37.416C247.147 37.416 247.611 37.2187 248.006 36.824C248.401 36.4187 248.598 35.8213 248.598 35.032C248.598 34.2427 248.401 33.6507 248.006 33.256C247.611 32.8507 247.153 32.648 246.63 32.648C246.086 32.648 245.617 32.8507 245.222 33.256C244.838 33.6507 244.646 34.2427 244.646 35.032C244.646 35.8213 244.838 36.4187 245.222 36.824C245.617 37.2187 246.081 37.416 246.614 37.416ZM252.009 39V31.064H253.817L253.977 32.408C254.222 31.9387 254.574 31.5653 255.033 31.288C255.502 31.0107 256.052 30.872 256.681 30.872C257.662 30.872 258.425 31.1813 258.969 31.8C259.513 32.4187 259.785 33.3253 259.785 34.52V39H257.737V34.712C257.737 34.0293 257.598 33.5067 257.321 33.144C257.044 32.7813 256.612 32.6 256.025 32.6C255.449 32.6 254.974 32.8027 254.601 33.208C254.238 33.6133 254.057 34.1787 254.057 34.904V39H252.009ZM264.779 39C263.947 39 263.28 38.7973 262.779 38.392C262.278 37.9867 262.027 37.2667 262.027 36.232V32.776H260.667V31.064H262.027L262.267 28.936H264.075V31.064H266.219V32.776H264.075V36.248C264.075 36.632 264.155 36.8987 264.315 37.048C264.486 37.1867 264.774 37.256 265.179 37.256H266.171V39H264.779ZM267.477 39V27.48H269.525V32.28C269.792 31.8427 270.149 31.5013 270.597 31.256C271.056 31 271.579 30.872 272.165 30.872C273.147 30.872 273.904 31.1813 274.437 31.8C274.981 32.4187 275.253 33.3253 275.253 34.52V39H273.221V34.712C273.221 34.0293 273.083 33.5067 272.805 33.144C272.539 32.7813 272.112 32.6 271.525 32.6C270.949 32.6 270.469 32.8027 270.085 33.208C269.712 33.6133 269.525 34.1787 269.525 34.904V39H267.477ZM276.711 39V27.48H278.759V39H276.711ZM281.344 42.52L283.184 38.472H282.704L279.616 31.064H281.84L284.064 36.648L286.384 31.064H288.56L283.52 42.52H281.344Z" fill="#19191B"/>
</svg>
